FILE "Eye of the Beholder (1994)(Pony Canyon)(JP).img" BINARY
  TRACK 01 MODE1/2352
    INDEX 01 00:00:00
  TRACK 02 AUDIO
    PREGAP 00:02:00
    INDEX 01 02:30:57
  TRACK 03 AUDIO
    INDEX 00 07:26:27
    INDEX 01 07:28:26
  TRACK 04 AUDIO
    INDEX 00 10:31:29
    INDEX 01 10:33:28
  TRACK 05 AUDIO
    INDEX 00 13:05:15
    INDEX 01 13:07:14
  TRACK 06 AUDIO
    INDEX 00 15:57:56
    INDEX 01 15:59:55
  TRACK 07 AUDIO
    INDEX 00 19:05:73
    INDEX 01 19:07:72
  TRACK 08 AUDIO
    INDEX 00 22:26:06
    INDEX 01 22:28:05
  TRACK 09 AUDIO
    INDEX 00 25:13:28
    INDEX 01 25:15:27
  TRACK 10 AUDIO
    INDEX 00 27:19:37
    INDEX 01 27:21:36
  TRACK 11 AUDIO
    INDEX 00 30:14:24
    INDEX 01 30:16:23
  TRACK 12 AUDIO
    INDEX 00 31:11:01
    INDEX 01 31:13:00
  TRACK 13 AUDIO
    INDEX 00 33:08:46
    INDEX 01 33:10:45
  TRACK 14 AUDIO
    INDEX 00 33:17:27
    INDEX 01 33:19:26
  TRACK 15 AUDIO
    INDEX 00 33:48:69
    INDEX 01 33:50:68
  TRACK 16 AUDIO
    INDEX 00 34:10:26
    INDEX 01 34:12:25
  TRACK 17 AUDIO
    INDEX 00 34:20:24
    INDEX 01 34:22:23
  TRACK 18 AUDIO
    INDEX 00 34:39:74
    INDEX 01 34:41:73
  TRACK 19 AUDIO
    INDEX 00 36:58:66
    INDEX 01 37:00:65
  TRACK 20 AUDIO
    INDEX 00 37:08:63
    INDEX 01 37:10:62
  TRACK 21 AUDIO
    INDEX 00 38:15:66
    INDEX 01 38:17:65
  TRACK 22 AUDIO
    INDEX 00 38:27:37
    INDEX 01 38:29:36
  TRACK 23 AUDIO
    INDEX 00 38:37:24
    INDEX 01 38:39:23
  TRACK 24 AUDIO
    INDEX 00 39:03:46
    INDEX 01 39:05:45
  TRACK 25 AUDIO
    INDEX 00 39:14:32
    INDEX 01 39:16:31
  TRACK 26 AUDIO
    INDEX 00 39:22:40
    INDEX 01 39:24:39
  TRACK 27 AUDIO
    INDEX 00 39:36:15
    INDEX 01 39:38:14
  TRACK 28 AUDIO
    INDEX 00 40:26:14
    INDEX 01 40:28:13
  TRACK 29 AUDIO
    INDEX 00 42:51:26
    INDEX 01 42:53:25
  TRACK 30 AUDIO
    INDEX 00 42:59:22
    INDEX 01 43:01:21
  TRACK 31 AUDIO
    INDEX 00 43:07:19
    INDEX 01 43:09:18
  TRACK 32 AUDIO
    INDEX 00 43:19:66
    INDEX 01 43:21:65
  TRACK 33 AUDIO
    INDEX 00 43:27:54
    INDEX 01 43:29:53
  TRACK 34 AUDIO
    INDEX 00 43:43:03
    INDEX 01 43:45:02
  TRACK 35 AUDIO
    INDEX 00 44:45:19
    INDEX 01 44:47:18
  TRACK 36 AUDIO
    INDEX 00 44:54:52
    INDEX 01 44:56:51
  TRACK 37 AUDIO
    INDEX 00 45:18:61
    INDEX 01 45:20:60
  TRACK 38 AUDIO
    INDEX 00 45:27:74
    INDEX 01 45:29:73
  TRACK 39 AUDIO
    INDEX 00 45:47:28
    INDEX 01 45:49:27
  TRACK 40 AUDIO
    INDEX 00 46:02:74
    INDEX 01 46:04:73
  TRACK 41 AUDIO
    INDEX 00 46:38:50
    INDEX 01 46:40:49
  TRACK 42 AUDIO
    INDEX 00 46:48:15
    INDEX 01 46:50:14
  TRACK 43 AUDIO
    INDEX 00 47:10:72
    INDEX 01 47:12:71
  TRACK 44 AUDIO
    INDEX 00 47:18:72
    INDEX 01 47:20:71
  TRACK 45 AUDIO
    INDEX 00 47:46:56
    INDEX 01 47:48:55
  TRACK 46 AUDIO
    INDEX 00 48:21:12
    INDEX 01 48:23:11
  TRACK 47 AUDIO
    INDEX 00 48:42:54
    INDEX 01 48:44:53
  TRACK 48 AUDIO
    INDEX 00 49:14:15
    INDEX 01 49:16:14
  TRACK 49 AUDIO
    INDEX 00 49:37:67
    INDEX 01 49:39:66
  TRACK 50 AUDIO
    INDEX 00 49:49:23
    INDEX 01 49:51:22
  TRACK 51 AUDIO
    INDEX 00 50:20:08
    INDEX 01 50:22:07
  TRACK 52 AUDIO
    INDEX 00 50:50:51
    INDEX 01 50:52:50
  TRACK 53 AUDIO
    INDEX 00 51:04:61
    INDEX 01 51:06:60
  TRACK 54 AUDIO
    INDEX 00 51:34:12
    INDEX 01 51:36:11
  TRACK 55 AUDIO
    INDEX 00 51:43:10
    INDEX 01 51:45:09
  TRACK 56 AUDIO
    INDEX 00 52:00:40
    INDEX 01 52:02:39
